<?xml version="1.0" encoding="UTF-8" standalone="no"?>
<!-- Created with Inkscape (http://www.inkscape.org/) -->

<svg
   xmlns:dc="http://purl.org/dc/elements/1.1/"
   xmlns:cc="http://creativecommons.org/ns#"
   xmlns:rdf="http://www.w3.org/1999/02/22-rdf-syntax-ns#"
   xmlns:svg="http://www.w3.org/2000/svg"
   xmlns="http://www.w3.org/2000/svg"
   xmlns:sodipodi="http://sodipodi.sourceforge.net/DTD/sodipodi-0.dtd"
   xmlns:inkscape="http://www.inkscape.org/namespaces/inkscape"
   width="744.09448"
   height="1052.3622"
   id="svg2"
   version="1.1"
   inkscape:version="0.48.1 r9760"
   style="display:inline"
   sodipodi:docname="New document 1">
  <defs
     id="defs4" />
  <sodipodi:namedview
     id="base"
     pagecolor="#ffffff"
     bordercolor="#666666"
     borderopacity="1.0"
     inkscape:pageopacity="0.0"
     inkscape:pageshadow="2"
     inkscape:zoom="1.4"
     inkscape:cx="165.34155"
     inkscape:cy="875.01839"
     inkscape:document-units="px"
     inkscape:current-layer="g3822"
     showgrid="true"
     showborder="false"
     inkscape:showpageshadow="false"
     inkscape:snap-grids="true"
     inkscape:window-width="1918"
     inkscape:window-height="1062"
     inkscape:window-x="0"
     inkscape:window-y="0"
     inkscape:window-maximized="0">
    <inkscape:grid
       type="xygrid"
       id="grid2985"
       empspacing="5"
       visible="true"
       enabled="true"
       snapvisiblegridlinesonly="true" />
  </sodipodi:namedview>
  <metadata
     id="metadata7">
    <rdf:RDF>
      <cc:Work
         rdf:about="">
        <dc:format>image/svg+xml</dc:format>
        <dc:type
           rdf:resource="http://purl.org/dc/dcmitype/StillImage" />
        <dc:title></dc:title>
      </cc:Work>
    </rdf:RDF>
  </metadata>
  <g
     inkscape:label="[1-4] Base"
     inkscape:groupmode="layer"
     id="layer1"
     style="display:inline">
    <rect
       style="fill:#ffffff;fill-opacity:1;stroke:none"
       id="rect3826"
       width="750"
       height="250"
       x="-220"
       y="-57.637817" />
    <path
       style="fill:#ffffff;fill-opacity:1;stroke:#000000;stroke-width:2;stroke-linecap:round;stroke-miterlimit:4;stroke-opacity:1;stroke-dasharray:none;stroke-dashoffset:0"
       d="m -160,92.362183 610,0"
       id="path3777"
       inkscape:connector-curvature="0" />
    <path
       sodipodi:type="arc"
       style="fill:#f0e047;fill-opacity:1;stroke:#000000;stroke-width:2;stroke-linecap:round;stroke-miterlimit:4;stroke-opacity:1;stroke-dasharray:none;stroke-dashoffset:0"
       id="path3769"
       sodipodi:cx="-160"
       sodipodi:cy="92.362183"
       sodipodi:rx="40"
       sodipodi:ry="40"
       d="m -120,92.362183 a 40,40 0 1 1 -80,0 40,40 0 1 1 80,0 z" />
    <path
       d="m -120,92.362183 a 40,40 0 1 1 -80,0 40,40 0 1 1 80,0 z"
       sodipodi:ry="40"
       sodipodi:rx="40"
       sodipodi:cy="92.362183"
       sodipodi:cx="-160"
       id="path3771"
       style="fill:#f0e047;fill-opacity:1;stroke:#000000;stroke-width:2;stroke-linecap:round;stroke-miterlimit:4;stroke-opacity:1;stroke-dasharray:none;stroke-dashoffset:0"
       sodipodi:type="arc"
       transform="translate(203.33333,0)" />
    <path
       transform="translate(406.66666,0)"
       sodipodi:type="arc"
       style="fill:#f0e047;fill-opacity:1;stroke:#000000;stroke-width:2;stroke-linecap:round;stroke-miterlimit:4;stroke-opacity:1;stroke-dasharray:none;stroke-dashoffset:0"
       id="path3773"
       sodipodi:cx="-160"
       sodipodi:cy="92.362183"
       sodipodi:rx="40"
       sodipodi:ry="40"
       d="m -120,92.362183 a 40,40 0 1 1 -80,0 40,40 0 1 1 80,0 z" />
    <path
       d="m -120,92.362183 a 40,40 0 1 1 -80,0 40,40 0 1 1 80,0 z"
       sodipodi:ry="40"
       sodipodi:rx="40"
       sodipodi:cy="92.362183"
       sodipodi:cx="-160"
       id="path3775"
       style="fill:#f0e047;fill-opacity:1;stroke:#000000;stroke-width:2;stroke-linecap:round;stroke-miterlimit:4;stroke-opacity:1;stroke-dasharray:none;stroke-dashoffset:0"
       sodipodi:type="arc"
       transform="translate(610,0)" />
  </g>
  <g
     inkscape:groupmode="layer"
     id="layer3"
     inkscape:label="[1] start"
     style="display:inline">
    <path
       style="fill:#0b0d8a;fill-opacity:1;stroke:#000000;stroke-width:1;stroke-linecap:round;stroke-miterlimit:4;stroke-opacity:1;stroke-dasharray:none;stroke-dashoffset:0;display:inline"
       d="m -161.03125,-27.625 c -10.5674,0.535663 -18.96875,9.299483 -18.96875,20 0,7.39885779 4.02728,13.8217907 10,17.28125 l 0,17.71875 10,15 10,-15 0,-17.71875 c 5.97272,-3.4594593 10,-9.88239221 10,-17.28125 0,-11.045695 -8.95431,-20 -20,-20 -0.34518,0 -0.69037,-0.01728 -1.03125,0 z"
       id="path3804"
       inkscape:connector-curvature="0" />
  </g>
  <g
     style="display:inline"
     inkscape:label="[2] after one step"
     id="g3814"
     inkscape:groupmode="layer">
    <path
       inkscape:connector-curvature="0"
       id="path3816"
       d="m 43.254464,-27.625 c -10.5674,0.535663 -18.96875,9.299483 -18.96875,20 0,7.39885779 4.02728,13.8217907 10,17.28125 l 0,17.71875 10,15 10,-15 0,-17.71875 c 5.97272,-3.4594593 10,-9.88239221 10,-17.28125 0,-11.045695 -8.95431,-20 -20,-20 -0.34518,0 -0.69037,-0.01728 -1.03125,0 z"
       style="fill:#138a0b;fill-opacity:1;stroke:#000000;stroke-width:1;stroke-linecap:round;stroke-miterlimit:4;stroke-opacity:1;stroke-dasharray:none;stroke-dashoffset:0;display:inline" />
  </g>
  <g
     inkscape:groupmode="layer"
     id="g3818"
     inkscape:label="[3] after two steps"
     style="display:inline">
    <path
       style="fill:#8a0b84;fill-opacity:1;stroke:#000000;stroke-width:1;stroke-linecap:round;stroke-miterlimit:4;stroke-opacity:1;stroke-dasharray:none;stroke-dashoffset:0;display:inline"
       d="m 246.82589,-27.625 c -10.5674,0.535663 -18.96875,9.299483 -18.96875,20 0,7.39885779 4.02728,13.8217907 10,17.28125 l 0,17.71875 10,15 10,-15 0,-17.71875 c 5.97272,-3.4594593 10,-9.88239221 10,-17.28125 0,-11.045695 -8.95431,-20 -20,-20 -0.34518,0 -0.69037,-0.01728 -1.03125,0 z"
       id="path3820"
       inkscape:connector-curvature="0" />
  </g>
  <g
     style="display:inline"
     inkscape:label="[4] after three steps"
     id="g3822"
     inkscape:groupmode="layer">
    <path
       inkscape:connector-curvature="0"
       id="path3824"
       d="m 450.39732,-27.625 c -10.5674,0.535663 -18.96875,9.299483 -18.96875,20 0,7.39885779 4.02728,13.8217907 10,17.28125 l 0,17.71875 10,15 10,-15 0,-17.71875 c 5.97272,-3.4594593 10,-9.88239221 10,-17.28125 0,-11.045695 -8.95431,-20 -20,-20 -0.34518,0 -0.69037,-0.01728 -1.03125,0 z"
       style="fill:#0fc2c2;fill-opacity:1;stroke:#000000;stroke-width:1;stroke-linecap:round;stroke-miterlimit:4;stroke-opacity:1;stroke-dasharray:none;stroke-dashoffset:0;display:inline" />
  </g>
  <g
     style="display:inline"
     id="g3779"
     inkscape:groupmode="layer"
     inkscape:label="[1,2] first half">
    <path
       d="m -120,92.362183 a 40,40 0 1 1 -80,0 40,40 0 1 1 80,0 z"
       sodipodi:ry="40"
       sodipodi:rx="40"
       sodipodi:cy="92.362183"
       sodipodi:cx="-160"
       id="path3783"
       style="fill:#cf2a11;fill-opacity:1;stroke:#000000;stroke-width:2;stroke-linecap:round;stroke-miterlimit:4;stroke-opacity:1;stroke-dasharray:none;stroke-dashoffset:0"
       sodipodi:type="arc" />
    <path
       transform="translate(203.33333,0)"
       sodipodi:type="arc"
       style="fill:#cf2a11;fill-opacity:1;stroke:#000000;stroke-width:2;stroke-linecap:round;stroke-miterlimit:4;stroke-opacity:1;stroke-dasharray:none;stroke-dashoffset:0"
       id="path3785"
       sodipodi:cx="-160"
       sodipodi:cy="92.362183"
       sodipodi:rx="40"
       sodipodi:ry="40"
       d="m -120,92.362183 a 40,40 0 1 1 -80,0 40,40 0 1 1 80,0 z" />
  </g>
  <g
     inkscape:label="[3,4] second half"
     inkscape:groupmode="layer"
     id="g3791"
     style="display:inline">
    <path
       transform="translate(406.66666,0)"
       sodipodi:type="arc"
       style="fill:#cf2a11;fill-opacity:1;stroke:#000000;stroke-width:2;stroke-linecap:round;stroke-miterlimit:4;stroke-opacity:1;stroke-dasharray:none;stroke-dashoffset:0"
       id="path3797"
       sodipodi:cx="-160"
       sodipodi:cy="92.362183"
       sodipodi:rx="40"
       sodipodi:ry="40"
       d="m -120,92.362183 a 40,40 0 1 1 -80,0 40,40 0 1 1 80,0 z" />
    <path
       d="m -120,92.362183 a 40,40 0 1 1 -80,0 40,40 0 1 1 80,0 z"
       sodipodi:ry="40"
       sodipodi:rx="40"
       sodipodi:cy="92.362183"
       sodipodi:cx="-160"
       id="path3799"
       style="fill:#cf2a11;fill-opacity:1;stroke:#000000;stroke-width:2;stroke-linecap:round;stroke-miterlimit:4;stroke-opacity:1;stroke-dasharray:none;stroke-dashoffset:0"
       sodipodi:type="arc"
       transform="translate(610,0)" />
  </g>
</svg>
